<svg xmlns="http://www.w3.org/2000/svg" xmlns:xlink="http://www.w3.org/1999/xlink" width="1366" zoomAndPan="magnify" viewBox="0 0 1024.5 576" height="768" preserveAspectRatio="xMidYMid meet" version="1.0"><defs><clipPath id="1d674d404e"><path d="M 309.976562 437.785156 L 327.96875 437.785156 L 327.96875 455.777344 L 309.976562 455.777344 Z M 309.976562 437.785156 " clip-rule="nonzero"/></clipPath></defs><path fill="#000000" d="M 329.5625 435.605469 L 332.277344 434.257812 L 333.609375 436.945312 L 330.894531 438.292969 Z M 335.007812 432.925781 L 337.722656 431.617188 L 339.023438 434.320312 L 336.308594 435.625 Z M 340.457031 430.324219 L 343.171875 429.054688 L 344.4375 431.773438 L 341.722656 433.039062 Z M 345.902344 427.804688 L 348.617188 426.578125 L 349.851562 429.308594 L 347.136719 430.535156 Z M 351.347656 425.363281 L 354.105469 424.160156 L 355.304688 426.910156 L 352.550781 428.113281 Z M 356.898438 422.960938 L 359.679688 421.792969 L 360.84375 424.554688 L 358.0625 425.726562 Z M 362.472656 420.636719 L 365.253906 419.507812 L 366.378906 422.285156 L 363.601562 423.414062 Z M 368.046875 418.394531 L 370.828125 417.308594 L 371.917969 420.101562 L 369.140625 421.1875 Z M 373.625 416.238281 L 376.425781 415.1875 L 377.480469 417.992188 L 374.675781 419.046875 Z M 379.28125 414.136719 L 382.117188 413.117188 L 383.132812 415.9375 L 380.296875 416.957031 Z M 384.972656 412.109375 L 387.808594 411.136719 L 388.785156 413.96875 L 385.949219 414.945312 Z M 390.664062 410.175781 L 393.5 409.242188 L 394.4375 412.089844 L 391.601562 413.023438 Z M 396.355469 408.328125 L 399.214844 407.433594 L 400.109375 410.292969 L 397.253906 411.1875 Z M 402.121094 406.546875 L 405.007812 405.6875 L 405.863281 408.5625 L 402.976562 409.421875 Z M 407.914062 404.847656 L 410.800781 404.035156 L 411.613281 406.921875 L 408.726562 407.734375 Z M 413.710938 403.242188 L 416.597656 402.476562 L 417.367188 405.375 L 414.480469 406.140625 Z M 419.503906 401.726562 L 422.417969 401 L 423.140625 403.910156 L 420.230469 404.636719 Z M 425.367188 400.289062 L 428.296875 399.605469 L 428.976562 402.523438 L 426.050781 403.207031 Z M 431.25 398.941406 L 434.175781 398.304688 L 434.8125 401.234375 L 431.886719 401.871094 Z M 437.128906 397.6875 L 440.058594 397.097656 L 440.648438 400.035156 L 437.722656 400.625 Z M 443.011719 396.527344 L 445.96875 395.980469 L 446.511719 398.929688 L 443.554688 399.476562 Z M 448.953125 395.453125 L 451.914062 394.953125 L 452.414062 397.910156 L 449.453125 398.410156 Z M 454.902344 394.472656 L 457.863281 394.023438 L 458.316406 396.984375 L 455.355469 397.4375 Z M 460.851562 393.589844 L 463.8125 393.1875 L 464.21875 396.160156 L 461.253906 396.5625 Z M 466.804688 392.804688 L 469.789062 392.449219 L 470.144531 395.425781 L 467.160156 395.78125 Z M 472.796875 392.113281 L 475.785156 391.804688 L 476.09375 394.785156 L 473.105469 395.09375 Z M 478.792969 391.519531 L 481.777344 391.257812 L 482.039062 394.246094 L 479.054688 394.503906 Z M 484.789062 391.023438 L 487.773438 390.8125 L 487.984375 393.800781 L 485 394.011719 Z M 490.789062 390.625 L 493.789062 390.460938 L 493.949219 393.457031 L 490.953125 393.617188 Z M 496.808594 390.324219 L 499.804688 390.210938 L 499.917969 393.207031 L 496.921875 393.320312 Z M 502.828125 390.121094 L 505.824219 390.058594 L 505.886719 393.058594 L 502.890625 393.121094 Z M 508.847656 390.019531 L 511.84375 390.007812 L 511.859375 393.007812 L 508.859375 393.019531 Z M 514.867188 390.019531 L 517.863281 390.054688 L 517.828125 393.054688 L 514.828125 393.015625 Z M 520.882812 390.117188 L 523.882812 390.199219 L 523.796875 393.199219 L 520.800781 393.113281 Z M 526.902344 390.3125 L 529.902344 390.445312 L 529.765625 393.441406 L 526.769531 393.308594 Z M 532.921875 390.605469 L 535.914062 390.789062 L 535.730469 393.785156 L 532.738281 393.601562 Z M 538.925781 391 L 541.910156 391.234375 L 541.675781 394.222656 L 538.691406 393.988281 Z M 544.921875 391.492188 L 547.90625 391.773438 L 547.625 394.757812 L 544.636719 394.476562 Z M 550.914062 392.082031 L 553.902344 392.414062 L 553.570312 395.390625 L 550.585938 395.0625 Z M 556.910156 392.769531 L 559.878906 393.148438 L 559.5 396.121094 L 556.53125 395.746094 Z M 562.863281 393.550781 L 565.828125 393.976562 L 565.402344 396.945312 L 562.4375 396.519531 Z M 568.8125 394.429688 L 571.777344 394.902344 L 571.304688 397.863281 L 568.339844 397.390625 Z M 574.761719 395.402344 L 577.726562 395.925781 L 577.203125 398.878906 L 574.242188 398.355469 Z M 580.707031 396.472656 L 583.636719 397.035156 L 583.070312 399.980469 L 580.140625 399.417969 Z M 586.589844 397.628906 L 589.519531 398.238281 L 588.90625 401.175781 L 585.976562 400.5625 Z M 592.46875 398.878906 L 595.398438 399.535156 L 594.742188 402.460938 L 591.8125 401.804688 Z M 598.351562 400.222656 L 601.28125 400.925781 L 600.578125 403.839844 L 597.648438 403.136719 Z M 604.21875 401.65625 L 607.105469 402.398438 L 606.359375 405.300781 L 603.472656 404.5625 Z M 610.011719 403.167969 L 612.898438 403.953125 L 612.109375 406.847656 L 609.222656 406.058594 Z M 615.804688 404.769531 L 618.691406 405.601562 L 617.863281 408.480469 L 614.976562 407.648438 Z M 621.601562 406.460938 L 624.488281 407.339844 L 623.613281 410.207031 L 620.726562 409.332031 Z M 627.371094 408.242188 L 630.207031 409.148438 L 629.292969 412.003906 L 626.457031 411.097656 Z M 633.0625 410.082031 L 635.898438 411.035156 L 634.945312 413.878906 L 632.109375 412.925781 Z M 638.753906 412.015625 L 641.589844 413.011719 L 640.59375 415.839844 L 637.757812 414.84375 Z M 644.445312 414.035156 L 647.28125 415.078125 L 646.246094 417.890625 L 643.410156 416.851562 Z M 650.109375 416.136719 L 652.886719 417.199219 L 651.816406 420 L 649.039062 418.9375 Z M 655.683594 418.289062 L 658.460938 419.394531 L 657.351562 422.179688 L 654.574219 421.074219 Z M 661.257812 420.527344 L 664.035156 421.671875 L 662.890625 424.445312 L 660.113281 423.296875 Z M 666.832031 422.847656 L 669.609375 424.039062 L 668.429688 426.792969 L 665.652344 425.605469 Z M 672.386719 425.25 L 675.101562 426.453125 L 673.886719 429.191406 L 671.171875 427.988281 Z M 677.835938 427.683594 L 680.550781 428.925781 L 679.300781 431.652344 L 676.585938 430.410156 Z M 683.28125 430.199219 L 685.996094 431.484375 L 684.714844 434.195312 L 682 432.910156 Z M 688.726562 432.796875 L 691.441406 434.121094 L 690.128906 436.816406 L 687.414062 435.492188 Z M 694.171875 435.472656 L 694.441406 435.609375 L 693.101562 438.289062 L 692.832031 438.15625 Z M 694.171875 435.472656 " fill-opacity="1" fill-rule="nonzero"/><g clip-path="url(#1d674d404e)"><path fill="#000000" d="M 316.347656 455.777344 C 314.648438 455.777344 313.046875 455.113281 311.84375 453.910156 C 307.085938 448.996094 312.328125 441.46875 316.828125 438.835938 C 317.40625 438.464844 318.140625 438.4375 318.746094 438.765625 C 319.347656 439.09375 319.722656 439.726562 319.722656 440.414062 L 319.722656 440.960938 C 320.054688 440.753906 320.40625 440.535156 320.769531 440.308594 C 322.324219 439.332031 323.933594 438.324219 324.902344 437.945312 C 325.746094 437.613281 326.664062 437.808594 327.308594 438.449219 C 327.949219 439.089844 328.140625 440.011719 327.8125 440.851562 C 327.433594 441.820312 326.421875 443.429688 325.449219 444.988281 C 325.222656 445.347656 325 445.699219 324.796875 446.03125 L 325.34375 446.03125 C 326.03125 446.03125 326.660156 446.40625 326.988281 447.011719 C 327.316406 447.613281 327.292969 448.347656 326.917969 448.925781 C 324.789062 452.238281 320.894531 455.777344 316.351562 455.777344 Z M 317.84375 440.035156 C 317.78125 440.035156 317.710938 440.050781 317.640625 440.097656 C 313.855469 442.382812 308.996094 448.578125 312.902344 452.851562 C 317.179688 456.757812 323.367188 451.902344 325.65625 448.113281 C 325.765625 447.941406 325.703125 447.789062 325.671875 447.726562 C 325.640625 447.667969 325.542969 447.53125 325.339844 447.53125 L 323.472656 447.53125 C 322.914062 447.546875 322.527344 446.886719 322.820312 446.410156 C 323.179688 445.785156 323.664062 445.011719 324.179688 444.191406 C 325.070312 442.761719 326.085938 441.144531 326.414062 440.304688 C 326.578125 439.886719 326.328125 439.589844 326.246094 439.507812 C 326.164062 439.429688 325.867188 439.175781 325.449219 439.339844 C 324.613281 439.667969 322.992188 440.683594 321.566406 441.578125 C 320.746094 442.089844 319.972656 442.578125 319.347656 442.933594 C 319.113281 443.066406 318.828125 443.066406 318.597656 442.933594 C 318.363281 442.796875 318.222656 442.550781 318.222656 442.285156 L 318.222656 440.414062 C 318.222656 440.210938 318.085938 440.117188 318.027344 440.082031 C 317.992188 440.066406 317.925781 440.035156 317.84375 440.035156 Z M 316.722656 452.03125 C 312.769531 451.925781 312.769531 446.136719 316.722656 446.03125 C 320.679688 446.136719 320.675781 451.925781 316.722656 452.03125 Z M 316.722656 447.53125 C 314.753906 447.566406 314.753906 450.496094 316.722656 450.53125 C 318.695312 450.496094 318.695312 447.566406 316.722656 447.53125 Z M 316.722656 447.53125 " fill-opacity="1" fill-rule="nonzero"/></g></svg>